<svg xmlns="http://www.w3.org/2000/svg" width="577" height="96" viewBox="0 0 577 96" role="img" aria-label="Fail2ban GUI">
  <title>Fail2ban GUI</title>
  <defs>
    <linearGradient id="g" x1="0" y1="0" x2="1" y2="1">
      <stop offset="0%" stop-color="#00FFCC"/>
      <stop offset="55%" stop-color="#1FB6FF"/>
      <stop offset="100%" stop-color="#8A2BE2"/>
    </linearGradient>
    <filter id="glow" x="-30%" y="-30%" width="160%" height="160%">
      <feGaussianBlur stdDeviation="3" result="b"/>
      <feMerge><feMergeNode in="b"/><feMergeNode in="SourceGraphic"/></feMerge>
    </filter>
  </defs>
  <g fill="url(#g)" filter="url(#glow)">
    <path d="M58 0 L58 720 L715 720 L715 639 L139 639 L139 401 L602 401 L602 319 L139 319 L139 0 L58 0 Z" transform="translate(36.00,70.0) scale(0.05104,-0.05104)"/>
    <path d="M58 0 L58 600 Q58 633 74 660 Q90 688 117 704 Q145 720 178 720 L658 720 Q691 720 718 704 Q746 688 762 660 Q778 633 778 600 L778 0 L697 0 L697 263 L139 263 L139 0 L58 0 L58 0 M139 344 L697 344 L697 600 Q697 616 685 627 Q674 639 658 639 L178 639 Q162 639 150 627 Q139 616 139 600 L139 344 L139 344 Z" transform="translate(80.90,70.0) scale(0.05104,-0.05104)"/>
    <path d="M66 0 L66 720 L148 720 L148 0 L66 0 Z" transform="translate(131.57,70.0) scale(0.05104,-0.05104)"/>
    <path d="M57 0 L57 721 L138 721 L138 81 L777 81 L777 0 L57 0 Z" transform="translate(150.49,70.0) scale(0.05104,-0.05104)"/>
    <path d="M57 0 L57 0 L57 270 Q57 304 73 331 Q89 359 116 375 Q144 391 178 391 L663 391 Q679 391 690 402 Q702 414 702 430 L702 599 Q702 615 690 626 Q679 638 663 638 L178 638 Q162 638 150 626 Q139 615 139 599 L139 571 L57 571 L57 599 Q57 633 73 660 Q89 688 116 704 Q144 721 178 721 L663 721 Q696 721 723 704 Q751 688 767 660 Q784 633 784 599 L784 430 Q784 397 767 369 Q751 342 723 325 Q696 309 663 309 L178 309 Q162 309 150 297 Q139 286 139 270 L139 121 Q139 105 150 93 Q162 82 178 82 L784 82 L784 0 L57 0 Z" transform="translate(198.25,70.0) scale(0.05104,-0.05104)"/>
    <path d="M59 0 L59 720 L628 720 Q661 720 688 704 Q716 688 732 660 Q748 633 748 600 L748 447 Q748 433 744 419 Q741 406 735 394 Q757 361 768 337 Q779 313 779 288 L779 120 Q779 87 763 59 Q747 32 719 16 Q692 0 659 0 L59 0 L59 0 M179 81 L659 81 Q675 81 686 92 Q698 104 698 120 L698 288 Q698 304 686 315 Q675 327 659 327 L179 327 Q163 327 151 315 Q140 304 140 288 L140 120 Q140 104 151 92 Q163 81 179 81 M179 408 L628 408 Q644 408 655 419 Q666 431 666 447 L666 600 Q666 616 655 627 Q644 639 628 639 L179 639 Q163 639 151 627 Q140 616 140 600 L140 447 Q140 431 151 419 Q163 408 179 408 Z" transform="translate(248.61,70.0) scale(0.05104,-0.05104)"/>
    <path d="M58 0 L58 600 Q58 633 74 660 Q90 688 117 704 Q145 720 178 720 L658 720 Q691 720 718 704 Q746 688 762 660 Q778 633 778 600 L778 0 L697 0 L697 263 L139 263 L139 0 L58 0 L58 0 M139 344 L697 344 L697 600 Q697 616 685 627 Q674 639 658 639 L178 639 Q162 639 150 627 Q139 616 139 600 L139 344 L139 344 Z" transform="translate(299.07,70.0) scale(0.05104,-0.05104)"/>
    <path d="M56 0 L56 720 L167 720 L695 92 L695 720 L776 720 L776 0 L665 0 L137 628 L137 0 L56 0 Z" transform="translate(349.74,70.0) scale(0.05104,-0.05104)"/>
    <path d="M176 0 Q143 0 115 16 Q88 32 72 59 Q56 87 56 120 L56 600 Q56 633 72 660 Q88 688 115 704 Q143 720 176 720 L656 720 Q689 720 716 704 Q744 688 760 660 Q776 633 776 600 L776 571 L695 571 L695 600 Q695 616 683 627 Q672 639 656 639 L176 639 Q160 639 148 627 Q137 616 137 600 L137 120 Q137 104 148 92 Q160 81 176 81 L656 81 Q672 81 683 92 Q695 104 695 120 L695 298 L517 298 L517 380 L776 380 L776 120 Q776 87 760 59 Q744 32 716 16 Q689 0 656 0 L176 0 Z" transform="translate(429.00,70.0) scale(0.05104,-0.05104)"/>
    <path d="M174 0 Q141 0 113 16 Q86 32 70 59 Q54 87 54 120 L54 720 L135 720 L135 120 Q135 104 146 92 Q158 81 174 81 L654 81 Q670 81 681 92 Q693 104 693 120 L693 720 L774 720 L774 120 Q774 87 758 59 Q742 32 714 16 Q687 0 654 0 L174 0 L174 0 Z" transform="translate(479.36,70.0) scale(0.05104,-0.05104)"/>
    <path d="M66 0 L66 720 L148 720 L148 0 L66 0 Z" transform="translate(529.62,70.0) scale(0.05104,-0.05104)"/>
  </g>
</svg>
